<?xml version="1.0" standalone="no"?>
<!DOCTYPE svg PUBLIC "-//W3C//DTD SVG 1.1//EN" "http://www.w3.org/Graphics/SVG/1.1/DTD/svg11.dtd">
<svg version="1.1" xmlns="http://www.w3.org/2000/svg" viewBox="0 0 493.21262374214984 1232.6462696038886" width="493.21262374214984" height="1232.6462696038886"><!-- svg-source:excalidraw --><metadata></metadata><defs><style class="style-fonts">
      </style></defs><rect x="0" y="0" width="493.21262374214984" height="1232.6462696038886" fill="#ffffff"></rect><g stroke-linecap="round" transform="translate(10 10) rotate(0 228.85907056429778 15.723142252509007)"><path d="M7.86 0 C146.16 0.32, 286.19 0.03, 449.86 0 M7.86 0 C141.53 0.04, 275.54 -0.53, 449.86 0 M449.86 0 C453.34 1.85, 459.71 2.03, 457.72 7.86 M449.86 0 C455.27 2.12, 456.49 0.52, 457.72 7.86 M457.72 7.86 C457.3 12.76, 457.47 17.06, 457.72 23.58 M457.72 7.86 C457.89 12.49, 457.97 16.03, 457.72 23.58 M457.72 23.58 C457.19 29.26, 453.42 31.76, 449.86 31.45 M457.72 23.58 C457.56 29.7, 455.17 32.77, 449.86 31.45 M449.86 31.45 C352.7 32.44, 255.49 32.66, 7.86 31.45 M449.86 31.45 C300.6 33.78, 152 33.16, 7.86 31.45 M7.86 31.45 C2.75 32.83, 0.47 27.43, 0 23.58 M7.86 31.45 C1.33 31.12, -1.54 27.43, 0 23.58 M0 23.58 C0.93 20.14, 0.93 14.15, 0 7.86 M0 23.58 C0.58 19.21, 0.34 15.58, 0 7.86 M0 7.86 C-0.22 1.15, 1.82 0.49, 7.86 0 M0 7.86 C1.17 4.21, 4.33 -1.87, 7.86 0" stroke="#1e1e1e" stroke-width="2" fill="none"></path></g><g stroke-linecap="round" transform="translate(10 49.5990249322449) rotate(0 228.85907056429778 163.05480854453785)"><path d="M32 0 C177.47 1.74, 322.22 0.49, 425.72 0 M32 0 C172.55 0.02, 314.08 0.54, 425.72 0 M425.72 0 C448.43 1.49, 456.09 8.85, 457.72 32 M425.72 0 C448.82 0.65, 459.1 11.43, 457.72 32 M457.72 32 C456.2 103.08, 457.91 173.43, 457.72 294.11 M457.72 32 C458.72 91.52, 458.65 151.57, 457.72 294.11 M457.72 294.11 C455.88 314.86, 445.38 324.81, 425.72 326.11 M457.72 294.11 C457.28 316.86, 444.87 326.42, 425.72 326.11 M425.72 326.11 C336.44 324.38, 244.8 323.05, 32 326.11 M425.72 326.11 C290.82 326.09, 156.87 325.98, 32 326.11 M32 326.11 C9.96 324.4, -0.77 316.42, 0 294.11 M32 326.11 C10.68 323.88, -0.26 317.31, 0 294.11 M0 294.11 C2.79 233.74, 1.08 175.43, 0 32 M0 294.11 C0.55 218.37, 0.88 144.53, 0 32 M0 32 C1.96 12.48, 9.69 -0.58, 32 0 M0 32 C1.73 8.37, 8.38 -2.15, 32 0" stroke="#1e1e1e" stroke-width="2" fill="none"></path></g><g stroke-linecap="round" transform="translate(14.65870881555827 387.3554140602161) rotate(0 225.94737755457385 54.15748998086434)"><path d="M27.08 0 C128.14 2.71, 228.78 2.72, 424.82 0 M27.08 0 C126.49 -2.28, 226.51 -1.67, 424.82 0 M424.82 0 C443.02 1.93, 450.74 8.19, 451.89 27.08 M424.82 0 C440.59 0.87, 453.23 9.21, 451.89 27.08 M451.89 27.08 C452.62 37.39, 449.99 47.42, 451.89 81.24 M451.89 27.08 C451.38 43.53, 453.28 60.6, 451.89 81.24 M451.89 81.24 C452.36 98.35, 443.5 108.66, 424.82 108.31 M451.89 81.24 C450.55 100.44, 443.03 107.1, 424.82 108.31 M424.82 108.31 C288.51 107.56, 153.08 107.17, 27.08 108.31 M424.82 108.31 C296.68 107.15, 168.08 108.13, 27.08 108.31 M27.08 108.31 C7.7 106.53, 1.62 99.13, 0 81.24 M27.08 108.31 C11.16 106.98, -0.37 101.54, 0 81.24 M0 81.24 C2.21 64.62, 0.55 53.34, 0 27.08 M0 81.24 C0.23 63.56, 0.13 44.63, 0 27.08 M0 27.08 C-1.19 9.84, 10.95 0.57, 27.08 0 M0 27.08 C1.32 7.65, 10.91 -0.58, 27.08 0" stroke="#1e1e1e" stroke-width="2" fill="none"></path></g><g stroke-linecap="round"><g transform="translate(25.140803650564294 25.140803650564237) rotate(0 24.458221281680665 0.5823386019447696)"><path d="M0.25 0.18 C8.47 0.29, 41.34 0.56, 49.38 0.67 M-0.28 -0.2 C7.89 -0.05, 40.87 0.87, 49.18 1.12" stroke="#1e1e1e" stroke-width="2" fill="none"></path></g></g><mask></mask><g stroke-linecap="round"><g transform="translate(252.25285840902757 25.140803650564237) rotate(0 16.305480854453776 0.5823386019447696)"><path d="M0.4 0.38 C5.82 0.52, 26.71 0.54, 32.15 0.67 M-0.06 0.1 C5.56 0.31, 27.66 0.83, 33.15 1.12" stroke="#1e1e1e" stroke-width="2" fill="none"></path></g></g><mask></mask><g stroke-linecap="round"><g transform="translate(315.1454274190637 27.470158058343344) rotate(0 12.811449242785102 0)"><path d="M0.21 0.14 C4.54 0.13, 21.79 -0.04, 26.06 -0.12 M-0.34 -0.27 C3.95 -0.18, 21.53 0.46, 25.86 0.52" stroke="#1e1e1e" stroke-width="2" fill="none"></path></g></g><mask></mask><g stroke-linecap="round"><g transform="translate(360.56783837075636 23.97612644667467) rotate(0 16.305480854453776 0)"><path d="M-0.41 -0.32 C5 -0.28, 26.83 -0.11, 32.39 -0.1 M0.38 0.71 C5.71 0.85, 26.44 0.63, 31.85 0.55" stroke="#1e1e1e" stroke-width="2" fill="none"></path></g></g><mask></mask><g stroke-linecap="round"><g transform="translate(69.39853739836735 185.86625778732295) rotate(0 57.069182990588274 0.5823386019447696)"><path d="M-1.16 1.2 C17.71 1.1, 94.63 0.46, 113.7 0.6 M0.43 0.78 C19.06 1.34, 93.32 1.95, 112.52 1.84" stroke="#1e1e1e" stroke-width="2" fill="none"></path></g></g><mask></mask><g stroke-linecap="round"><g transform="translate(61.24579697114052 210.32447906900364) rotate(0 68.13361642753904 0.5823386019447412)"><path d="M-0.99 1.04 C21.7 1.51, 112.34 1.64, 135.17 1.73 M0.7 0.55 C23.83 0.76, 114.91 0.08, 137.3 -0.09" stroke="#1e1e1e" stroke-width="2" fill="none"></path></g></g><mask></mask><g stroke-linecap="round" transform="translate(294.18123774905166 138.11449242785116) rotate(0 58.816198796422555 51.24579697114048)"><path d="M25.62 0 C50.64 -1.07, 72.03 -0.32, 92.01 0 M25.62 0 C47.03 -0.98, 67.97 0.31, 92.01 0 M92.01 0 C110.29 -1.57, 117.3 9.31, 117.63 25.62 M92.01 0 C108.7 -0.66, 117.51 9.96, 117.63 25.62 M117.63 25.62 C118.48 34.59, 119.16 45.59, 117.63 76.87 M117.63 25.62 C117.48 45.44, 117.53 66.15, 117.63 76.87 M117.63 76.87 C117.79 93.8, 109.84 101.25, 92.01 102.49 M117.63 76.87 C118.96 92.94, 111.32 102.48, 92.01 102.49 M92.01 102.49 C73.76 101.47, 55.61 103.05, 25.62 102.49 M92.01 102.49 C77.34 101.49, 65.05 102.53, 25.62 102.49 M25.62 102.49 C6.75 103.47, 0.15 92.41, 0 76.87 M25.62 102.49 C9.29 101.07, -0.29 95.73, 0 76.87 M0 76.87 C-0.44 66.48, -1.48 56.59, 0 25.62 M0 76.87 C0.09 65.96, -0.2 55.53, 0 25.62 M0 25.62 C-0.29 7.35, 9.09 0.1, 25.62 0 M0 25.62 C1.16 10.79, 6.49 1.16, 25.62 0" stroke="#1e1e1e" stroke-width="2" fill="none"></path></g><g stroke-linecap="round"><g transform="translate(44.940316116686745 417.6370213613446) rotate(0 74.53934104893153 -0.582338601944798)"><path d="M0.64 0.14 C25.39 -0.06, 123.49 -0.41, 148.25 -0.81 M-0.48 -0.83 C24.67 -1.45, 125.7 -2.63, 150.53 -2.75" stroke="#1e1e1e" stroke-width="2" fill="none"></path></g></g><mask></mask><g stroke-linecap="round"><g transform="translate(47.26967052446582 446.75395145858346) rotate(0 72.79232524309731 -0.582338601944798)"><path d="M0.85 0.91 C25.06 0.52, 120.31 -1.48, 144.59 -1.74 M-0.16 0.34 C24.48 0.05, 122.38 0, 146.78 -0.5" stroke="#1e1e1e" stroke-width="2" fill="none"></path></g></g><mask></mask><g stroke-linecap="round"><g transform="translate(46.10499332057623 463.05943231303723) rotate(0 73.374663845042 2.3293544077791353)"><path d="M-0.72 0.75 C23.52 1.51, 121.27 4.14, 145.87 4.87 M1.1 0.1 C25.68 0.44, 123.94 2.37, 148.11 2.86" stroke="#1e1e1e" stroke-width="2" fill="none"></path></g></g><mask></mask><g stroke-linecap="round"><g transform="translate(290.6872061373831 421.13105297301325) rotate(0 57.06918299058816 0)"><path d="M1.08 1.09 C19.78 1.01, 94.53 -0.82, 113.23 -0.83 M0.19 0.61 C19.16 0.69, 96.21 0.5, 115.47 0.27" stroke="#1e1e1e" stroke-width="2" fill="none"></path></g></g><mask></mask><g stroke-linecap="round"><g transform="translate(281.36978850626656 446.75395145858346) rotate(0 62.89256901003603 -1.7470158058343372)"><path d="M-0.68 -0.31 C20.26 -1.09, 105.24 -3.25, 126.4 -3.63 M1.17 -1.52 C21.94 -1.59, 105.01 -1.67, 125.78 -2.16" stroke="#1e1e1e" stroke-width="2" fill="none"></path></g></g><mask></mask><g stroke-linecap="round"><g transform="translate(275.5464024868188 468.882818332485) rotate(0 71.04530943726286 0)"><path d="M0.36 0.25 C24.15 0.14, 118.6 0.36, 142.33 0.21 M-0.91 -0.67 C22.78 -1.23, 117.64 -1.97, 141.51 -1.8" stroke="#1e1e1e" stroke-width="2" fill="none"></path></g></g><mask></mask><g stroke-linecap="round" transform="translate(16.98806322333735 504.9878116530612) rotate(0 226.5297161565186 149.66102069980798)"><path d="M32 0 C131.13 -0.55, 232.7 -0.63, 421.06 0 M32 0 C116.29 -1.71, 199.98 -1.89, 421.06 0 M421.06 0 C441.36 1.85, 452.75 10.77, 453.06 32 M421.06 0 C442.31 -0.8, 454.39 11.97, 453.06 32 M453.06 32 C453.01 100.35, 452.08 168.58, 453.06 267.32 M453.06 32 C451.98 106.42, 450.45 181.83, 453.06 267.32 M453.06 267.32 C452.51 289.95, 442.38 298.1, 421.06 299.32 M453.06 267.32 C452.16 290.38, 444.07 300.74, 421.06 299.32 M421.06 299.32 C320.78 299.64, 218.43 299.05, 32 299.32 M421.06 299.32 C294.65 300.74, 168.88 300.63, 32 299.32 M32 299.32 C11.46 298.19, 1.98 287.13, 0 267.32 M32 299.32 C8.55 297.94, 1 287.91, 0 267.32 M0 267.32 C0.09 208.55, -0.91 150.94, 0 32 M0 267.32 C-1.28 208.53, -1.63 149.65, 0 32 M0 32 C-0.59 9.13, 9.64 -0.34, 32 0 M0 32 C-1.08 8.5, 9.29 -1.48, 32 0" stroke="#1e1e1e" stroke-width="2" fill="none"></path></g><g stroke-linecap="round" transform="translate(62.410474175030004 555.0689314203121) rotate(0 39.5990249322449 50.081119767250925)"><path d="M19.8 0 C34.02 -0.64, 45.83 1.04, 59.4 0 M19.8 0 C31.48 -0.4, 44.51 -0.35, 59.4 0 M59.4 0 C70.72 -1.19, 77.91 6.32, 79.2 19.8 M59.4 0 C73.41 1.25, 79.69 5.84, 79.2 19.8 M79.2 19.8 C77.19 43.33, 78.74 65.54, 79.2 80.36 M79.2 19.8 C79.73 33.38, 79.44 48.58, 79.2 80.36 M79.2 80.36 C80.16 92.84, 74.37 100.41, 59.4 100.16 M79.2 80.36 C77.27 93.38, 72.18 102.26, 59.4 100.16 M59.4 100.16 C48.54 98.25, 39.14 99.25, 19.8 100.16 M59.4 100.16 C45.06 99.82, 30.3 99.64, 19.8 100.16 M19.8 100.16 C4.91 102.16, 1.08 93.76, 0 80.36 M19.8 100.16 C8.89 102.24, 0.49 91.61, 0 80.36 M0 80.36 C-0.87 58.33, 1.77 38.69, 0 19.8 M0 80.36 C0.92 65.89, -0.21 51.88, 0 19.8 M0 19.8 C1.52 8.1, 4.79 -0.52, 19.8 0 M0 19.8 C1.54 7.05, 4.69 -0.23, 19.8 0" stroke="#1e1e1e" stroke-width="2" fill="none"></path></g><g stroke-linecap="round" transform="translate(173.05480854453788 555.0689314203121) rotate(0 60.56321460225689 50.66345836919572)"><path d="M25.33 0 C49.74 -0.68, 77.68 1.42, 95.79 0 M25.33 0 C42.69 -0.7, 57.94 -0.63, 95.79 0 M95.79 0 C114.2 1.5, 119.31 7.92, 121.13 25.33 M95.79 0 C114.22 0.45, 119.22 8.21, 121.13 25.33 M121.13 25.33 C120.67 37.72, 120.84 49.17, 121.13 76 M121.13 25.33 C120.54 43.63, 120.19 60.21, 121.13 76 M121.13 76 C122.29 91.17, 111.15 102.67, 95.79 101.33 M121.13 76 C119.33 94.85, 110.42 100.66, 95.79 101.33 M95.79 101.33 C69.36 100.1, 44.47 102.45, 25.33 101.33 M95.79 101.33 C77.41 102.93, 59.8 102.49, 25.33 101.33 M25.33 101.33 C10.36 103.27, -1.94 92.37, 0 76 M25.33 101.33 C6.99 101, 0.15 92.31, 0 76 M0 76 C-1.11 63.49, 0.94 54.48, 0 25.33 M0 76 C1.34 57.2, 0.22 36.95, 0 25.33 M0 25.33 C1.46 6.71, 7.12 1.21, 25.33 0 M0 25.33 C2.17 7.66, 8.57 -1.51, 25.33 0" stroke="#1e1e1e" stroke-width="2" fill="none"></path></g><g stroke-linecap="round" transform="translate(316.3101046229533 559.7276402358705) rotate(0 56.486844388643476 51.245796971140464)"><path d="M25.62 0 C46.62 1.14, 73.11 1.07, 87.35 0 M25.62 0 C41.7 -1.11, 60.12 0.49, 87.35 0 M87.35 0 C103.75 0.11, 111.66 7.84, 112.97 25.62 M87.35 0 C105.21 1.07, 114.47 9.31, 112.97 25.62 M112.97 25.62 C112.35 38.91, 113.37 48.86, 112.97 76.87 M112.97 25.62 C112.76 41.78, 111.83 59.74, 112.97 76.87 M112.97 76.87 C112.47 93.16, 103.52 101.91, 87.35 102.49 M112.97 76.87 C114.49 92.81, 102.2 101.05, 87.35 102.49 M87.35 102.49 C68.59 104.1, 47.68 102.81, 25.62 102.49 M87.35 102.49 C69.76 102.61, 51.92 102.94, 25.62 102.49 M25.62 102.49 C9 101.72, 1.39 93.52, 0 76.87 M25.62 102.49 C9.82 103, -0.35 95.47, 0 76.87 M0 76.87 C0.28 59.22, 0.57 38.74, 0 25.62 M0 76.87 C0.53 65.53, 0.62 53.25, 0 25.62 M0 25.62 C-1.28 10.03, 8.54 0.64, 25.62 0 M0 25.62 C0.52 8.01, 9.38 -2.29, 25.62 0" stroke="#1e1e1e" stroke-width="2" fill="none"></path></g><g stroke-linecap="round" transform="translate(77.5512778255943 676.195360624826) rotate(0 39.016686330300104 48.91644256336133)"><path d="M19.51 0 C31.62 -0.43, 46.89 -0.83, 58.53 0 M19.51 0 C27.95 0.7, 35.65 0.51, 58.53 0 M58.53 0 C70.64 -0.15, 77.71 5.47, 78.03 19.51 M58.53 0 C73.44 -0.2, 77.12 5.53, 78.03 19.51 M78.03 19.51 C79.56 36.33, 79.28 54.45, 78.03 78.32 M78.03 19.51 C78.53 35.45, 78.59 53.75, 78.03 78.32 M78.03 78.32 C78.67 91.44, 70.05 99.28, 58.53 97.83 M78.03 78.32 C78.53 93.4, 72.08 100.11, 58.53 97.83 M58.53 97.83 C48.66 98.77, 39.25 97.66, 19.51 97.83 M58.53 97.83 C45.04 98.47, 32.59 97.71, 19.51 97.83 M19.51 97.83 C6.57 98.63, -1.23 92.24, 0 78.32 M19.51 97.83 C6.42 98.02, -0.87 91.15, 0 78.32 M0 78.32 C-1.35 60.35, 2.44 43.64, 0 19.51 M0 78.32 C1.35 63.33, 0.87 46.72, 0 19.51 M0 19.51 C-1.66 5.76, 7.31 -1.2, 19.51 0 M0 19.51 C2.13 7.2, 6.96 -1.37, 19.51 0" stroke="#1e1e1e" stroke-width="2" fill="none"></path></g><g stroke-linecap="round" transform="translate(183.5369033795439 680.8540694403841) rotate(0 53.5751513789196 45.42241095169271)"><path d="M22.71 0 C38.45 0.34, 52.58 -1.08, 84.44 0 M22.71 0 C37.61 0.23, 51.63 0.36, 84.44 0 M84.44 0 C97.59 -1.12, 106.43 9.28, 107.15 22.71 M84.44 0 C100.33 0.22, 107.23 8.49, 107.15 22.71 M107.15 22.71 C107.52 32.79, 107.2 43.98, 107.15 68.13 M107.15 22.71 C106.76 33.39, 106.63 41.76, 107.15 68.13 M107.15 68.13 C105.81 81.52, 101.48 91.78, 84.44 90.84 M107.15 68.13 C108.24 81.69, 97.67 89.99, 84.44 90.84 M84.44 90.84 C64.04 91.81, 41.24 90.84, 22.71 90.84 M84.44 90.84 C60.11 91.29, 37.44 90.58, 22.71 90.84 M22.71 90.84 C7.82 92.22, -0.51 82.26, 0 68.13 M22.71 90.84 C8.65 91.93, 1.58 84.45, 0 68.13 M0 68.13 C0.21 57.35, 1.7 47.22, 0 22.71 M0 68.13 C0.14 51.5, 0.78 36.26, 0 22.71 M0 22.71 C1.71 8.83, 5.62 -0.63, 22.71 0 M0 22.71 C-0.48 9.03, 6.33 -1.19, 22.71 0" stroke="#1e1e1e" stroke-width="2" fill="none"></path></g><g stroke-linecap="round" transform="translate(320.96881343851146 684.3481010520529) rotate(0 48.33410396141653 39.5990249322449)"><path d="M19.8 0 C32.72 0.21, 47.33 0.52, 76.87 0 M19.8 0 C40.38 -0.49, 61.62 0.67, 76.87 0 M76.87 0 C91.78 1.26, 94.72 5.97, 96.67 19.8 M76.87 0 C89.59 1.46, 95.43 5.41, 96.67 19.8 M96.67 19.8 C96.88 27.45, 97.53 39.1, 96.67 59.4 M96.67 19.8 C97.06 35.62, 97.67 51.51, 96.67 59.4 M96.67 59.4 C95.52 73.85, 91.15 80.49, 76.87 79.2 M96.67 59.4 C98.89 71.24, 89.49 79.68, 76.87 79.2 M76.87 79.2 C62.14 78.72, 49.03 79.3, 19.8 79.2 M76.87 79.2 C56.57 79.66, 35.67 78.17, 19.8 79.2 M19.8 79.2 C5.79 77.34, 0.42 71.39, 0 59.4 M19.8 79.2 C4.32 80.34, 1.37 70.63, 0 59.4 M0 59.4 C-1.8 48.69, 0.18 41.29, 0 19.8 M0 59.4 C-0.07 50.76, -0.91 41.4, 0 19.8 M0 19.8 C0.87 7.91, 5.74 -0.11, 19.8 0 M0 19.8 C2.01 4.93, 4.98 -2.08, 19.8 0" stroke="#1e1e1e" stroke-width="2" fill="none"></path></g><g stroke-linecap="round" transform="translate(15.01238777854826 814.3346286097735) rotate(0 234.1001179818008 111.86408646151409)"><path d="M32 0 C162.68 -0.9, 290.88 -0.79, 436.2 0 M32 0 C145 -2.07, 259.11 -2.49, 436.2 0 M436.2 0 C456.16 -0.81, 466.34 11.08, 468.2 32 M436.2 0 C456.15 -2.28, 469.34 12.03, 468.2 32 M468.2 32 C469.17 64.59, 465.98 100.8, 468.2 191.73 M468.2 32 C466.54 86.77, 467.47 140.39, 468.2 191.73 M468.2 191.73 C468.4 213.93, 458.85 222.87, 436.2 223.73 M468.2 191.73 C468.07 215.07, 455.86 222.11, 436.2 223.73 M436.2 223.73 C351.55 225.02, 267.79 225.73, 32 223.73 M436.2 223.73 C299.02 224.45, 162.44 224.02, 32 223.73 M32 223.73 C8.75 223.23, -0.15 211.5, 0 191.73 M32 223.73 C12.56 225.71, 0.79 214.94, 0 191.73 M0 191.73 C-1.81 131.81, 0.82 69.99, 0 32 M0 191.73 C-0.72 131.6, -0.65 73.15, 0 32 M0 32 C-1.06 9.73, 12.34 0.46, 32 0 M0 32 C1.56 10.89, 8.58 -1.73, 32 0" stroke="#1e1e1e" stroke-width="2" fill="none"></path></g><g stroke-linecap="round" transform="translate(71.86127121666937 846.0939402177753) rotate(0 159.42739752234638 9.869315084716732)"><path d="M4.93 0 C93.46 -1.18, 182 -0.88, 313.92 0 M4.93 0 C124.96 1.96, 245.95 1.83, 313.92 0 M313.92 0 C318.88 0.46, 320.21 1.84, 318.85 4.93 M313.92 0 C315.12 -1.73, 319.83 3.82, 318.85 4.93 M318.85 4.93 C319.58 9.61, 319.65 12.31, 318.85 14.8 M318.85 4.93 C318.49 8.26, 318.36 10.73, 318.85 14.8 M318.85 14.8 C319.5 17.33, 316.86 19.6, 313.92 19.74 M318.85 14.8 C317.18 16.31, 315.49 19.75, 313.92 19.74 M313.92 19.74 C194.52 18.29, 75.04 17.48, 4.93 19.74 M313.92 19.74 C194.03 19.53, 73.93 19.4, 4.93 19.74 M4.93 19.74 C1.39 19.24, -0.41 16.87, 0 14.8 M4.93 19.74 C2.9 18.3, -2.03 18.68, 0 14.8 M0 14.8 C0.86 12.26, -0.37 10.34, 0 4.93 M0 14.8 C0.35 12.14, 0.39 9.22, 0 4.93 M0 4.93 C-1.88 1.27, 3.5 1.26, 4.93 0 M0 4.93 C0.11 1.08, 1.72 1.37, 4.93 0" stroke="#1e1e1e" stroke-width="2" fill="none"></path></g><g stroke-linecap="round" transform="translate(74.89798355042831 890.1262690572805) rotate(0 157.9090413554669 14.424383585355145)"><path d="M7.21 0 C87.38 -0.22, 166.76 1.71, 308.61 0 M7.21 0 C87.61 0, 167.8 0.52, 308.61 0 M308.61 0 C312.92 -0.41, 314.6 3.49, 315.82 7.21 M308.61 0 C311.98 -2.03, 316.4 1.46, 315.82 7.21 M315.82 7.21 C315.94 10.85, 316.88 15.48, 315.82 21.64 M315.82 7.21 C316.15 12.06, 316.08 15.09, 315.82 21.64 M315.82 21.64 C315.44 28.3, 314.67 28.94, 308.61 28.85 M315.82 21.64 C315.25 26.52, 314.78 29.13, 308.61 28.85 M308.61 28.85 C207.97 27.1, 106.8 28.44, 7.21 28.85 M308.61 28.85 C213.48 30.35, 119.3 29.88, 7.21 28.85 M7.21 28.85 C0.83 28.64, 0.69 26.37, 0 21.64 M7.21 28.85 C0.75 28.25, -2.05 26.03, 0 21.64 M0 21.64 C0.51 18.24, 0.37 15.3, 0 7.21 M0 21.64 C-0.59 16.76, 0.35 11.5, 0 7.21 M0 7.21 C-1.91 1.02, 0.86 -1.84, 7.21 0 M0 7.21 C-1.87 0.73, 3.53 0.07, 7.21 0" stroke="#1e1e1e" stroke-width="2" fill="none"></path></g><g stroke-linecap="round" transform="translate(77.93469588418725 958.4522965668575) rotate(0 162.46410985610544 31.885479504469345)"><path d="M15.94 0 C110.94 -0.13, 206.91 -0.22, 308.99 0 M15.94 0 C106.31 -1.34, 197.65 -1.39, 308.99 0 M308.99 0 C321.54 -1.68, 325.72 7.13, 324.93 15.94 M308.99 0 C319.38 -0.33, 325 4.65, 324.93 15.94 M324.93 15.94 C324.38 29.02, 324.59 36.71, 324.93 47.83 M324.93 15.94 C323.98 22.83, 324.2 30.78, 324.93 47.83 M324.93 47.83 C323.55 58.59, 320.65 65.41, 308.99 63.77 M324.93 47.83 C326.83 56.26, 319.83 62.88, 308.99 63.77 M308.99 63.77 C225.08 61.51, 141.72 62.89, 15.94 63.77 M308.99 63.77 C240.25 63.19, 170.68 63.62, 15.94 63.77 M15.94 63.77 C3.91 65.09, -0.64 58.61, 0 47.83 M15.94 63.77 C3.89 64.23, -0.61 58.22, 0 47.83 M0 47.83 C1.3 37.47, 0.59 24.56, 0 15.94 M0 47.83 C-0.28 39.54, 0.62 32.43, 0 15.94 M0 15.94 C0.59 6.9, 6.45 -0.13, 15.94 0 M0 15.94 C-0.87 7.46, 6.37 -1.25, 15.94 0" stroke="#1e1e1e" stroke-width="2" fill="none"></path></g><g stroke-linecap="round"><g transform="translate(76.41633971730789 829.392022382101) rotate(0 57.69753434142058 0)"><path d="M0.87 -0.78 C19.96 -1, 95.18 -0.66, 114.32 -0.46 M-0.13 1.43 C19.34 1.3, 97.25 1.36, 116.47 0.84" stroke="#1e1e1e" stroke-width="2" fill="none"></path></g></g><mask></mask><g stroke-linecap="round"><g transform="translate(80.97140821794619 874.9427073884856) rotate(0 61.493424758619426 0)"><path d="M1.1 0.14 C21.66 0.4, 102.91 0.99, 123.34 0.95 M0.22 -0.83 C20.65 -0.83, 102.07 -1.01, 122.58 -0.67" stroke="#1e1e1e" stroke-width="2" fill="none"></path></g></g><mask></mask><g stroke-linecap="round"><g transform="translate(82.48976438482578 937.1953102305447) rotate(0 61.49342475861931 0.7591780834397923)"><path d="M-1.01 0.28 C19.68 0.78, 103.05 1.59, 123.75 1.96 M0.66 -0.62 C21.3 -0.4, 102.89 -0.15, 123.2 0.07" stroke="#1e1e1e" stroke-width="2" fill="none"></path></g></g><mask></mask><g stroke-linecap="round" transform="translate(18.718805375887314 1049.553666579627) rotate(0 231.5493154491221 86.54630151213087)"><path d="M32 0 C179.73 2.38, 328.53 1.94, 431.1 0 M32 0 C158.65 1.55, 284.08 0.9, 431.1 0 M431.1 0 C453.39 -1.24, 464.18 12.03, 463.1 32 M431.1 0 C452.62 -2.29, 461.04 11.81, 463.1 32 M463.1 32 C464.51 69.86, 463.65 106.87, 463.1 141.09 M463.1 32 C462.14 63.5, 463.78 94.88, 463.1 141.09 M463.1 141.09 C462.8 163.67, 453.93 172.02, 431.1 173.09 M463.1 141.09 C463.44 160.45, 454.11 173.46, 431.1 173.09 M431.1 173.09 C296.61 172.37, 161 172.32, 32 173.09 M431.1 173.09 C303.23 172.71, 174.27 172.47, 32 173.09 M32 173.09 C11.75 171.35, 1.68 162.28, 0 141.09 M32 173.09 C11.01 173.65, 1.46 160.41, 0 141.09 M0 141.09 C0.47 105.94, 0.1 75, 0 32 M0 141.09 C1.11 114.21, 0.06 87.56, 0 32 M0 32 C0.08 11.07, 9.12 -1.52, 32 0 M0 32 C0.78 9.31, 10.3 1.14, 32 0" stroke="#1e1e1e" stroke-width="2" fill="none"></path></g><g stroke-linecap="round"><g transform="translate(131.07716172496953 528.7575013399619) rotate(0 97.17479468028728 0)"><path d="M0.26 -0.96 C32.62 -0.88, 161.31 0.77, 193.85 0.81 M-1.07 1.16 C31.12 0.87, 159.9 -0.73, 192.64 -0.88" stroke="#1e1e1e" stroke-width="2" fill="none"></path></g></g><mask></mask><g stroke-linecap="round"><g transform="translate(156.88921656192088 1082.9575022509757) rotate(0 78.1953425942936 0)"><path d="M1.02 0.05 C27.02 0.38, 131.14 1.32, 156.92 1.15 M0.09 -0.97 C25.91 -0.87, 129.9 -0.5, 156.25 -0.37" stroke="#1e1e1e" stroke-width="2" fill="none"></path></g></g><mask></mask><g stroke-linecap="round"><g transform="translate(112.85688772241565 1128.5081872573603) rotate(0 53.14246584078205 0.7591780834397923)"><path d="M-0.3 -1.06 C17.64 -0.71, 89.19 0.61, 107.08 0.93 M1.75 0.99 C19.64 1.61, 89.06 2.02, 106.55 2.17" stroke="#1e1e1e" stroke-width="2" fill="none"></path></g></g><mask></mask><g stroke-linecap="round"><g transform="translate(99.19168222050007 1145.2101050930348) rotate(0 66.04849325925784 1.518356166879471)"><path d="M-0.69 0.91 C21.36 1.33, 110.65 3.44, 132.94 3.6 M1.15 0.34 C23.06 0.92, 110.5 1.41, 132.44 1.78" stroke="#1e1e1e" stroke-width="2" fill="none"></path></g></g><mask></mask><g stroke-linecap="round"><g transform="translate(88.56318905234366 1169.5038037631066) rotate(0 83.50958917837193 -0.7591780834396786)"><path d="M1.14 -0.85 C29.24 -1.39, 139.84 -1.77, 167.45 -2.05 M0.28 1.32 C28.36 1.44, 139.11 -0.29, 166.73 -0.79" stroke="#1e1e1e" stroke-width="2" fill="none"></path></g></g><mask></mask></svg>